<svg width="64" height="64" xmlns="http://www.w3.org/2000/svg">
    <path stroke="null" d="m60.20683,43.31747c0.17928,0.64541 -0.16733,0.93226 -0.76494,0.60955l-9.04771,-4.74496c-2.80873,0.86055 -5.90431,1.35058 -9.16722,1.35058c-12.51379,0 -22.66108,-7.06366 -22.66108,-15.7767c0,-8.71304 10.14728,-15.7767 22.66108,-15.7767c12.52574,0 22.67304,7.06366 22.67304,15.7767c0,4.07565 -2.23503,7.76884 -5.86845,10.56561l2.17527,7.99592z" fill="#20A64B"/>
    <path stroke="null" d="m40.48596,45.0408c-14.97591,0 -26.71282,-8.66524 -26.71282,-19.72088c0,-1.70914 0.31076,-3.34657 0.83665,-4.91229c-8.49791,2.3426 -14.50978,8.10349 -14.50978,14.85639c0,4.12346 2.27089,7.87639 5.95212,10.72098l-2.21113,8.09154c-0.17928,0.65737 0.16733,0.94422 0.77688,0.6215l9.17917,-4.80472c2.84459,0.87249 5.97602,1.37449 9.28674,1.37449c7.41027,0 13.97194,-2.45017 18.16711,-6.23896c-0.25099,0 -0.50199,0.01195 -0.76494,0.01195l0,0z" fill="#F18D0E"/>
</svg>