<svg width="64" height="64" xmlns="http://www.w3.org/2000/svg">
	<path stroke="null" id="svg_1" d="m49.65137,39.08229c0.11219,0.40389 -0.10471,0.58339 -0.47868,0.38145l-5.66191,-2.96932c-1.75766,0.53852 -3.69482,0.84517 -5.7367,0.84517c-7.83093,0 -14.18094,-4.42032 -14.18094,-9.8728c0,-5.45248 6.35,-9.8728 14.18094,-9.8728c7.83841,0 14.18842,4.42032 14.18842,9.8728c0,2.55047 -1.39864,4.86161 -3.67238,6.61179l1.36125,5.00372z" fill="#20A64B"/>
	<path stroke="null" id="svg_2" d="m37.31037,40.16072c-9.37168,0 -16.71645,-5.42256 -16.71645,-12.341c0,-1.06955 0.19447,-2.09423 0.52356,-3.07403c-5.31785,1.46596 -9.07998,5.07103 -9.07998,9.29689c0,2.58039 1.42109,4.92892 3.72474,6.70902l-1.38369,5.06355c-0.11219,0.41137 0.10471,0.59088 0.48616,0.38893l5.74418,-3.00672c1.7801,0.54599 3.7397,0.86013 5.81149,0.86013c4.63723,0 8.74341,-1.53328 11.36868,-3.90424c-0.15707,0 -0.31414,0.00748 -0.47868,0.00748l0,0z" fill="#F18D0E"/>
</svg>