<?xml version="1.0" encoding="utf-8"?>
<!-- Generator: Adobe Illustrator 19.1.0, SVG Export Plug-In . SVG Version: 6.00 Build 0)  -->
<svg version="1.1" id="Ebene_1" xmlns="http://www.w3.org/2000/svg" xmlns:xlink="http://www.w3.org/1999/xlink" x="0px" y="0px"
	 viewBox="0 0 612 792" style="enable-background:new 0 0 612 792;" xml:space="preserve">
<style type="text/css">
	.st0{fill:#20A64B;}
	.st1{fill:#F18D0E;}
</style>
<path class="st0" d="M541.5,488c1.5,5.4-1.4,7.8-6.4,5.1l-75.7-39.7c-23.5,7.2-49.4,11.3-76.7,11.3c-104.7,0-189.6-59.1-189.6-132
	c0-72.9,84.9-132,189.6-132c104.8,0,189.7,59.1,189.7,132c0,34.1-18.7,65-49.1,88.4L541.5,488z"/>
<path class="st1" d="M376.5,505C251.2,505,153,432.5,153,340c0-14.3,2.6-28,7-41.1C88.9,318.5,38.6,366.7,38.6,423.2
	c0,34.5,19,65.9,49.8,89.7l-18.5,67.7c-1.5,5.5,1.4,7.9,6.5,5.2l76.8-40.2c23.8,7.3,50,11.5,77.7,11.5c62,0,116.9-20.5,152-52.2
	C380.8,504.9,378.7,505,376.5,505z"/>
</svg>
